<?xml version="1.0" encoding="UTF-8"?>
<svg xmlns="http://www.w3.org/2000/svg" viewBox="0 0 768 768" fill="currentColor">
  <style>
    :root { color: #0a0a0a; }
    @media (prefers-color-scheme: dark) { :root { color: #fafafa; } }
  </style>
  <path fill-rule="evenodd" d="M313.5,672.6C302.9,672.9 298.6,672.7 295.7,671.6C293.7,670.9 291.3,669.7 290.5,669.0C289.7,668.3 288.6,666.1 288.0,664.1C287.4,662.1 286.1,643.2 285.0,622.0C283.8,600.8 282.3,570.2 281.5,553.9C280.7,537.6 280.0,516.1 279.9,506.0C279.8,495.1 280.2,487.4 280.8,486.8C281.4,486.2 282.0,486.2 282.5,487.0C282.9,487.6 283.8,502.6 284.6,520.3C285.4,538.0 287.1,574.1 288.5,600.5C289.8,626.9 291.1,652.0 291.2,656.2C291.5,662.0 292.0,664.4 293.3,665.7C294.6,667.1 297.1,667.6 303.5,667.9C308.1,668.0 315.9,667.7 320.7,667.1C325.5,666.4 333.3,665.0 338.0,663.9C344.8,662.3 354.0,658.2 385.0,642.8C406.2,632.2 428.6,620.8 434.8,617.3C441.1,613.8 451.2,607.6 457.3,603.5C463.5,599.5 474.5,591.3 481.9,585.4C489.3,579.5 499.4,570.8 504.3,566.1C509.2,561.4 516.9,552.9 521.4,547.4C525.8,541.8 531.7,533.6 534.3,529.2C537.0,524.8 540.3,518.4 541.7,515.0C543.0,511.6 543.9,508.6 543.7,508.4C543.4,508.1 537.5,514.6 530.4,522.7C523.3,530.8 513.3,541.8 508.0,547.1C502.8,552.3 494.2,560.2 488.9,564.6C483.6,568.9 472.1,577.2 463.4,582.9C454.6,588.5 439.5,597.9 429.6,603.7C419.8,609.4 411.4,614.0 410.9,613.8C410.4,613.6 417.2,606.3 426.1,597.6C435.0,588.8 445.6,577.7 449.6,572.9C453.6,568.0 458.7,561.4 460.9,558.2C463.1,555.0 466.7,548.8 468.9,544.4C471.1,540.1 472.7,536.4 472.5,536.2C472.3,535.9 465.4,542.5 457.1,550.8C448.9,559.0 436.4,570.5 429.3,576.2C422.3,582.0 409.6,591.5 401.1,597.3C392.6,603.2 385.0,608.0 384.3,608.0C383.6,608.0 383.0,607.8 383.0,607.5C383.0,607.2 385.3,602.5 388.0,597.0C390.8,591.5 394.7,582.6 396.9,577.3C399.0,571.9 402.3,562.3 404.3,556.0C406.3,549.7 409.1,539.7 410.4,533.8C411.8,528.0 415.0,511.8 417.4,497.8C419.9,483.9 422.9,469.6 424.1,466.0C425.8,460.7 426.4,456.0 426.9,440.8C427.4,427.3 428.0,421.7 429.0,420.5C429.8,419.6 433.5,417.3 437.2,415.4C441.0,413.5 444.3,411.4 444.6,410.7C444.8,410.0 445.4,395.6 445.9,378.5C446.4,360.6 446.4,347.1 445.9,346.6C445.3,346.0 434.7,347.6 417.8,350.8C402.8,353.7 381.3,357.5 370.0,359.4C358.7,361.3 338.7,364.2 325.5,365.9C312.3,367.6 293.0,369.5 282.7,370.1C268.0,371.1 259.6,371.1 244.7,370.1C234.1,369.4 221.9,368.3 217.5,367.5C213.1,366.7 209.3,366.4 209.0,366.8C208.7,367.2 208.7,374.9 209.1,384.0C209.5,393.1 209.8,412.2 209.9,426.5C210.0,449.2 210.2,452.9 211.7,455.0C212.6,456.3 214.7,458.6 216.4,460.1C218.1,461.7 223.4,466.0 228.2,469.7C233.0,473.4 237.5,477.9 238.3,479.5C239.1,481.1 240.1,486.8 240.4,492.0C240.8,497.2 242.6,518.0 244.5,538.2C246.4,558.4 248.0,578.7 248.0,583.4C248.0,591.3 247.6,592.9 243.1,604.2C240.4,611.0 237.5,619.0 236.6,622.0C235.6,625.1 234.6,633.0 234.3,640.2C234.0,647.3 233.3,653.0 232.7,653.0C232.2,653.0 229.2,650.3 226.1,647.1C222.9,643.8 218.0,637.7 215.1,633.6C212.3,629.5 208.1,622.2 205.7,617.3C201.6,608.8 201.5,608.2 201.5,598.5C201.5,589.8 202.0,587.0 205.0,577.5C208.5,566.5 208.5,566.5 208.4,547.0C208.4,536.3 207.6,513.1 206.6,495.5C205.6,476.3 204.6,439.3 204.3,402.9C203.7,342.3 203.7,342.3 191.4,341.7C183.7,341.3 177.6,340.4 175.3,339.5C173.2,338.6 170.2,336.7 168.7,335.2C167.1,333.7 164.9,330.8 163.9,328.7C162.8,326.6 161.6,322.7 161.3,320.0C160.9,316.2 161.1,314.9 162.2,314.5C163.0,314.2 168.2,314.6 173.8,315.4C179.4,316.3 185.5,317.6 187.4,318.4C189.7,319.4 191.7,321.4 193.6,324.7C195.1,327.3 197.4,331.0 198.7,332.8C200.0,334.5 201.5,336.0 202.0,336.0C202.5,336.0 203.9,334.1 205.1,331.8C206.3,329.5 209.6,325.1 212.5,322.0C215.3,319.0 218.4,315.4 219.3,314.0C220.2,312.7 221.0,310.2 221.0,308.5C221.0,306.9 220.1,302.1 219.0,298.0C217.9,293.9 217.0,289.3 217.0,287.8C217.0,286.2 217.4,285.0 218.0,285.0C218.5,285.0 221.0,288.1 223.5,292.0C226.1,295.8 229.0,299.2 230.1,299.5C231.2,299.9 233.1,299.4 234.8,298.2C236.3,297.1 238.7,294.9 240.2,293.3C241.7,291.8 244.2,287.5 245.8,283.9C248.4,278.1 249.2,277.2 252.0,276.6C253.8,276.3 257.6,276.0 260.6,276.0C263.5,276.0 267.0,275.6 268.3,275.1C269.8,274.5 271.4,272.6 272.4,270.1C273.3,267.8 274.0,264.3 274.0,262.2C274.0,260.1 272.9,255.3 271.7,251.4C270.0,246.6 268.6,244.1 266.9,243.2C265.3,242.3 262.3,242.1 257.8,242.4C254.2,242.7 249.9,243.5 248.3,244.3C246.8,245.2 244.3,247.1 242.9,248.7C241.5,250.2 238.5,254.2 236.3,257.5C234.2,260.8 231.1,265.6 229.6,268.2C228.1,270.9 226.2,273.0 225.3,273.0C224.0,273.0 223.9,272.3 224.4,268.9C224.8,266.7 226.2,262.5 227.7,259.7C229.1,256.8 231.7,252.5 233.4,250.0C235.0,247.5 238.2,243.6 240.4,241.2C242.6,238.8 245.6,236.2 247.1,235.4C249.0,234.5 253.3,234.0 260.6,234.0C271.3,234.0 271.3,234.0 280.9,224.7C286.2,219.7 294.4,212.9 299.0,209.8C303.7,206.6 311.4,202.5 316.1,200.6C320.8,198.7 328.3,196.2 332.6,195.0C337.0,193.9 344.7,192.5 349.9,191.9C355.3,191.2 365.8,191.0 374.4,191.3C386.0,191.7 392.1,192.5 400.5,194.5C406.6,196.0 412.7,197.4 414.2,197.7C416.5,198.1 417.1,197.8 418.0,195.4C418.6,193.8 420.6,189.3 422.5,185.4C424.4,181.5 428.0,175.5 430.5,172.1C433.1,168.6 434.9,165.5 434.6,165.2C434.2,164.9 431.0,166.7 427.2,169.3C423.5,171.9 416.7,177.1 412.1,181.0C407.5,184.8 403.1,188.0 402.4,188.0C401.6,188.0 401.0,187.4 401.0,186.8C401.0,186.1 401.7,183.2 402.6,180.5C403.4,177.8 405.9,168.4 408.1,159.7C410.3,151.0 411.8,143.5 411.4,142.9C411.0,142.2 409.4,143.2 407.3,145.2C405.4,147.0 400.2,153.2 395.7,158.9C391.2,164.6 386.4,170.6 385.2,172.1C383.1,174.6 382.2,175.0 377.4,175.0C372.0,175.0 372.0,175.0 372.0,171.6C372.0,169.7 373.1,161.9 374.5,154.3C376.0,146.7 378.2,136.1 379.6,130.6C381.0,125.2 381.8,120.5 381.5,120.2C381.2,119.9 378.8,121.9 376.2,124.6C373.6,127.3 368.6,133.8 365.2,138.9C361.7,144.1 357.5,151.3 355.9,154.9C354.2,158.5 352.0,163.8 350.9,166.7C349.8,169.5 347.9,172.5 346.6,173.4C345.3,174.2 343.0,175.2 341.4,175.6C338.7,176.3 338.7,176.3 339.3,158.9C339.7,149.3 340.4,136.3 340.9,130.0C341.5,123.7 341.7,118.4 341.4,118.1C341.2,117.9 340.3,118.5 339.5,119.6C338.6,120.6 336.1,125.0 333.9,129.4C331.7,133.7 328.6,140.7 327.0,145.0C325.4,149.3 322.9,158.4 321.5,165.2C319.8,173.2 318.4,177.9 317.2,178.8C316.3,179.5 313.8,180.5 311.7,181.1C309.6,181.7 307.1,182.0 306.3,181.8C305.2,181.6 303.5,177.6 300.9,169.4C298.9,162.7 296.4,152.4 295.4,146.4C294.5,140.4 293.6,134.9 293.3,134.1C293.1,133.3 292.7,132.9 292.4,133.2C292.2,133.5 291.1,136.8 290.0,140.6C288.9,144.3 287.6,153.0 287.0,159.9C286.5,166.7 286.0,176.2 286.0,181.0C286.0,187.4 285.6,190.1 284.5,191.0C283.7,191.6 282.2,191.9 281.1,191.5C280.0,191.2 277.8,188.8 276.2,186.2C274.6,183.6 270.8,176.8 267.8,171.0C264.9,165.2 260.9,157.1 259.1,153.0C256.0,145.9 255.7,145.6 254.8,148.0C254.2,149.5 254.0,155.3 254.4,162.5C254.7,169.1 255.7,181.1 256.5,189.2C257.3,197.3 257.7,204.6 257.4,205.5C257.1,206.3 255.9,207.0 254.9,207.0C253.8,207.0 249.2,203.2 244.2,198.1C239.4,193.2 232.8,186.0 229.5,182.2C223.8,175.5 223.5,175.3 223.2,177.8C223.1,179.3 223.8,183.7 224.9,187.5C225.9,191.3 228.5,200.2 230.5,207.3C232.5,214.3 234.0,220.6 233.7,221.4C233.3,222.3 232.3,222.6 231.1,222.3C230.0,222.0 222.9,216.8 215.4,210.8C207.8,204.7 201.4,200.3 201.2,200.9C201.0,201.5 203.4,206.4 206.5,211.9C209.6,217.4 213.0,224.1 213.9,226.7C214.9,229.3 216.0,233.1 216.3,235.1C216.6,237.1 216.5,239.3 216.0,240.0C215.4,241.0 213.7,240.6 208.5,238.1C204.8,236.4 199.0,233.3 195.6,231.3C192.3,229.2 187.9,226.1 185.8,224.2C183.5,222.1 181.5,219.0 180.4,215.7C179.1,212.0 178.6,207.4 178.6,199.5C178.6,193.4 178.9,187.3 179.3,185.8C179.9,183.7 180.7,183.0 182.5,183.0C183.9,183.0 186.7,183.9 188.7,185.0C190.8,186.1 193.0,187.0 193.7,187.0C194.4,187.0 195.2,186.0 195.4,184.8C195.6,183.5 196.4,179.1 197.0,175.0C197.7,170.9 199.1,165.1 200.1,162.2C201.1,159.2 202.9,155.3 204.1,153.4C205.2,151.5 206.8,150.0 207.6,150.0C208.5,150.0 211.2,151.6 213.7,153.5C217.3,156.2 218.6,156.7 219.6,155.9C220.4,155.3 221.0,154.0 221.0,153.1C221.0,152.2 222.5,148.2 224.4,144.3C226.6,139.8 230.2,134.7 234.6,130.1C238.3,126.1 243.4,121.7 245.8,120.3C250.3,117.7 250.3,117.7 253.0,121.0C255.7,124.3 255.7,124.3 264.6,115.4C271.1,108.9 275.6,105.5 280.9,102.7C284.9,100.7 289.2,99.0 290.4,99.0C291.5,99.0 293.0,99.4 293.6,99.8C294.2,100.2 295.7,102.4 296.9,104.8C298.3,107.5 299.5,108.8 300.3,108.4C301.0,108.0 304.5,105.5 308.1,102.9C311.7,100.2 317.3,96.7 320.6,95.1C323.9,93.5 329.4,91.4 332.9,90.5C336.3,89.6 341.1,89.0 343.3,89.2C347.5,89.5 347.5,89.5 347.8,95.6C348.1,101.7 348.1,101.7 354.1,99.3C357.4,98.0 362.2,96.7 364.8,96.3C368.6,95.9 369.9,96.2 371.9,97.9C373.9,99.7 375.6,100.0 382.9,100.0C387.6,100.0 394.4,100.5 398.0,101.0C401.6,101.6 405.6,102.9 407.0,103.9C408.5,105.0 410.2,107.9 411.3,111.3C412.4,114.6 413.8,117.1 414.8,117.4C415.7,117.7 420.6,118.7 425.5,119.5C430.4,120.4 436.9,122.2 439.8,123.5C443.3,125.1 445.3,126.8 446.0,128.5C446.6,130.0 447.0,133.1 447.0,135.4C447.0,139.8 447.0,139.8 453.0,142.0C456.4,143.3 461.0,145.6 463.3,147.2C465.6,148.9 468.5,151.4 469.7,152.8C471.0,154.3 472.0,156.4 472.0,157.6C472.0,158.8 470.8,161.4 469.4,163.6C468.0,165.7 464.6,169.9 462.0,173.0C459.4,176.0 454.9,181.6 452.0,185.5C449.2,189.3 445.0,196.2 442.8,200.7C440.0,206.3 438.5,210.8 438.2,214.4C437.8,219.7 437.8,219.7 448.6,225.4C454.6,228.6 463.1,233.7 467.4,236.8C471.7,240.0 479.7,246.7 485.2,251.9C490.6,257.1 498.0,264.9 501.6,269.4C505.2,273.9 510.5,281.4 513.5,286.1C516.4,290.8 520.2,297.4 521.8,300.7C523.5,304.0 526.7,312.1 529.0,318.5C531.2,325.0 533.9,334.6 534.9,339.9C536.0,345.2 537.3,353.8 537.9,359.0C538.5,364.2 539.7,384.2 540.5,403.5C541.3,422.8 542.5,442.6 543.0,447.5C543.6,452.4 544.8,459.0 545.6,462.0C546.5,465.0 548.1,469.3 549.2,471.5C550.3,473.7 553.3,477.9 555.8,480.9C558.3,483.8 563.6,488.6 567.4,491.4C571.3,494.3 578.0,498.7 582.3,501.4C586.9,504.2 590.6,507.3 591.5,509.0C592.3,510.6 593.0,513.4 593.0,515.2C593.0,517.0 591.9,520.9 590.5,523.9C589.1,526.8 585.3,532.7 581.9,536.9C578.6,541.1 570.8,549.9 564.7,556.5C558.5,563.1 549.2,572.4 544.0,577.2C538.8,582.0 529.8,589.6 524.0,594.1C518.2,598.6 507.9,606.0 501.0,610.5C494.1,615.0 484.4,620.9 479.5,623.7C474.6,626.5 466.4,630.8 461.5,633.2C456.6,635.7 445.5,640.5 437.0,644.0C428.5,647.4 418.1,651.3 414.0,652.6C409.9,654.0 402.4,656.1 397.5,657.5C392.6,658.9 381.3,661.6 372.5,663.5C363.7,665.5 350.0,668.2 342.0,669.6C333.3,671.1 321.9,672.3 313.5,672.6zM336.9,586.0C336.5,586.0 335.8,584.3 335.4,582.3C335.0,580.3 335.0,555.9 335.4,528.1C335.8,500.2 336.4,474.7 336.8,471.2C337.2,467.8 338.3,464.3 339.1,463.4C340.0,462.6 347.2,459.3 355.1,456.0C363.0,452.8 378.7,446.3 390.0,441.5C401.3,436.7 411.6,432.6 412.8,432.3C415.2,431.7 415.2,431.7 414.8,443.4C414.5,455.2 414.5,455.2 408.0,460.8C404.4,463.9 398.7,469.1 395.4,472.5C392.0,475.9 386.6,482.3 383.3,486.7C380.0,491.2 374.8,499.7 371.7,505.7C368.7,511.6 364.2,521.2 361.7,527.0C359.3,532.8 355.6,542.0 353.6,547.5C351.6,553.0 347.6,563.4 344.8,570.5C342.0,577.6 339.3,584.1 338.7,584.8C338.2,585.4 337.4,586.0 336.9,586.0zM265.3,481.7C264.7,481.9 263.7,481.3 263.2,480.3C262.6,479.3 261.7,473.6 261.1,467.7C260.4,461.8 259.7,456.3 259.4,455.6C259.1,454.8 253.4,451.9 246.7,449.0C240.0,446.2 231.2,442.0 227.1,439.7C223.1,437.4 218.8,434.3 217.5,432.9C215.6,430.6 215.2,428.6 214.7,418.4C214.3,411.8 213.7,405.2 213.4,403.7C212.8,400.9 212.8,400.9 218.1,403.1C221.1,404.3 226.7,406.4 230.5,407.7C234.3,409.0 243.1,411.5 250.0,413.2C256.9,414.8 263.1,416.8 263.9,417.5C264.9,418.5 265.5,424.5 266.2,441.3C266.7,453.7 266.9,467.8 266.8,472.6C266.6,478.2 266.1,481.5 265.3,481.7zM300.6,450.0C299.9,450.0 299.0,449.7 298.7,449.3C298.3,449.0 298.0,441.1 298.0,431.8C298.0,415.0 298.0,415.0 300.8,413.9C302.3,413.3 312.7,410.2 324.0,407.1C335.3,403.9 352.4,399.4 362.0,397.0C371.6,394.7 389.5,390.1 401.8,386.8C414.0,383.6 424.5,381.2 425.1,381.6C425.9,382.1 426.0,385.9 425.6,394.4C425.2,401.0 424.7,407.3 424.4,408.3C424.1,409.2 422.1,410.9 420.0,412.0C417.9,413.1 409.3,416.7 400.8,420.1C392.4,423.5 379.4,428.2 372.0,430.7C364.6,433.1 352.4,436.8 345.0,439.0C337.6,441.1 324.8,444.5 316.7,446.4C308.5,448.4 301.2,450.0 300.6,450.0zM275.0,364.0C277.6,364.0 284.4,363.5 290.1,363.0C295.8,362.4 306.4,361.3 313.5,360.4C320.6,359.6 337.7,357.1 351.5,354.9C365.2,352.7 376.8,350.3 377.2,349.7C377.6,349.0 378.0,347.3 378.0,345.9C378.0,344.5 378.9,339.8 380.1,335.4C381.2,331.1 383.4,324.5 384.9,320.8C386.5,317.2 390.7,309.8 394.2,304.3C397.8,298.9 403.8,291.4 407.6,287.6C411.4,283.8 418.1,278.3 422.6,275.4C427.0,272.5 433.1,269.2 436.1,268.0C439.1,266.7 445.2,265.5 450.0,265.1C458.5,264.4 458.5,264.4 452.5,260.5C449.2,258.4 441.6,254.3 435.5,251.4C429.5,248.6 420.2,244.8 415.0,243.1C409.8,241.4 401.7,239.1 397.0,238.1C392.3,237.0 384.5,235.6 379.5,234.9C374.1,234.2 366.8,234.0 361.1,234.4C355.9,234.8 347.4,236.2 342.1,237.6C336.8,238.9 328.8,241.8 324.2,244.0C319.7,246.1 312.9,250.1 309.2,252.7C305.5,255.3 298.9,261.1 294.4,265.5C289.6,270.3 284.9,276.2 282.6,280.2C279.1,286.5 278.7,286.9 274.7,287.4C272.4,287.7 266.7,288.2 261.9,288.5C253.4,289.1 253.4,289.1 245.1,301.7C239.7,309.7 235.4,317.6 232.9,323.9C230.8,329.2 228.0,339.2 226.6,346.0C224.5,356.1 224.3,358.7 225.3,359.7C226.0,360.4 231.1,361.4 236.5,362.0C242.0,362.5 249.9,363.0 254.1,363.0C261.7,363.0 261.7,363.0 262.4,359.2C262.7,357.2 263.0,354.0 263.0,352.2C263.0,350.3 263.9,344.3 265.0,338.8C266.2,333.3 267.7,327.4 268.5,325.6C269.9,322.8 269.9,324.4 269.4,342.2C269.1,353.1 269.1,362.4 269.5,363.0C269.8,363.5 272.3,364.0 275.0,364.0zM215.3,361.0C218.0,361.0 218.9,360.5 219.3,358.8C219.7,357.6 220.5,352.4 221.1,347.3C221.8,342.2 222.1,337.7 221.7,337.4C221.4,337.0 219.9,337.5 218.6,338.4C217.2,339.3 215.3,341.5 214.4,343.3C213.4,345.0 212.5,349.8 212.2,353.8C211.7,361.0 211.7,361.0 215.3,361.0zM198.2,303.9C196.2,303.8 189.8,303.2 184.0,302.5C178.2,301.7 173.2,301.1 172.8,301.1C172.3,301.0 170.2,299.3 167.9,297.3C165.7,295.3 162.8,291.5 161.4,288.9C160.1,286.3 158.5,281.0 157.9,277.1C157.2,273.2 157.0,269.7 157.4,269.3C157.7,269.0 162.2,270.0 167.3,271.7C172.3,273.4 181.6,277.1 187.9,279.9C194.1,282.7 200.5,285.9 202.1,287.1C203.7,288.2 205.0,290.0 205.0,291.1C205.0,292.5 204.3,293.0 202.0,293.0C199.0,293.0 199.0,293.0 200.5,296.6C201.3,298.6 202.0,301.1 202.0,302.1C202.0,303.6 201.3,304.0 198.2,303.9zM362.3,285.8C355.6,290.3 349.8,293.5 349.5,293.0C349.2,292.5 349.6,290.7 350.4,289.1C351.3,287.5 354.5,283.9 357.7,281.0C360.9,278.2 366.1,274.0 369.4,271.8C372.6,269.6 378.0,266.5 381.4,265.0C384.7,263.5 390.5,261.5 394.1,260.6C397.7,259.7 403.6,259.0 407.3,259.0C410.9,259.0 414.1,259.4 414.4,259.9C414.8,260.4 412.9,261.6 410.3,262.6C407.6,263.5 401.5,265.9 396.6,267.7C391.6,269.6 384.7,272.7 381.1,274.5C377.5,276.3 369.0,281.4 362.3,285.8zM200.2,272.0C199.3,271.9 193.9,270.2 188.3,268.1C182.7,266.0 176.4,263.0 174.3,261.5C172.2,259.9 169.5,257.5 168.3,256.1C167.0,254.7 165.1,250.5 164.0,246.9C162.4,242.0 162.0,238.3 162.2,231.9C162.5,223.5 162.5,223.5 165.6,223.6C167.3,223.7 174.7,226.8 182.1,230.5C189.5,234.2 198.2,239.2 201.6,241.5C204.9,243.9 209.1,247.5 210.8,249.5C212.6,251.5 214.0,253.7 214.0,254.5C214.0,255.3 213.2,256.0 212.2,256.0C211.3,256.0 207.2,254.2 203.2,252.0C199.2,249.8 195.5,248.0 195.0,248.0C194.5,248.0 194.2,248.6 194.5,249.2C194.7,249.9 196.5,254.9 198.4,260.2C200.4,265.5 202.0,270.4 202.0,271.0C202.0,271.5 201.2,272.0 200.2,272.0zM284.4,260.0C285.0,260.0 289.3,256.6 294.0,252.4C298.7,248.2 306.5,242.1 311.3,238.9C316.2,235.6 323.8,231.2 328.3,229.1C332.8,227.0 340.8,223.9 346.0,222.2C351.3,220.5 359.6,218.3 364.5,217.3C371.3,216.0 378.2,215.6 392.5,215.6C408.6,215.5 413.2,215.9 422.4,217.9C430.3,219.6 433.5,219.9 434.3,219.1C435.1,218.3 435.1,217.4 434.4,216.2C433.9,215.3 430.0,212.8 425.7,210.7C421.5,208.6 412.7,205.5 406.3,203.8C395.2,200.8 393.4,200.6 376.0,200.6C359.8,200.5 356.3,200.8 348.0,202.9C342.8,204.2 335.0,206.5 330.8,208.1C326.6,209.6 320.7,212.1 317.8,213.6C314.9,215.0 308.8,218.7 304.2,221.6C299.6,224.6 291.6,231.1 286.4,236.2C281.1,241.4 277.0,246.1 277.0,247.2C277.0,248.2 278.0,251.0 279.1,253.3C280.3,255.6 281.7,258.1 282.2,258.8C282.8,259.4 283.8,260.0 284.4,260.0z" />
</svg>
