<?xml version="1.0" encoding="UTF-8" standalone="no"?>
<!-- Filename: bec10ab82699da9f12112d0eab1097ae897e03c4ab88311c8d6fea98cb6c19f4.svg -->
<!-- Created with https://svgstud.io -->
<svg
  version="1.1"
  xmlns="http://www.w3.org/2000/svg"
  xmlns:xlink="http://www.w3.org/1999/xlink"
  xmlns:svg="http://www.w3.org/2000/svg"
  xmlns:rdf="http://www.w3.org/1999/02/22-rdf-syntax-ns#"
  xmlns:cc="http://creativecommons.org/ns#"
  xmlns:dc="http://purl.org/dc/elements/1.1/"
  viewBox="0 0 768 768"
  width="768"
  height="768"
  role="img"
  aria-labelledby="titleID descID"
>
  <title id="titleID">spartan helmet with plume</title>
  <desc id="descID">AI-generated SVG illustration: spartan helmet with plume, created on https://svgstud.io</desc>

  <rect width="100%" height="100%" fill="white" />

  <metadata id="copyright">
    Created by https://svgstud.io and licensed under CC-BY-SA 4.0 license. Please attribute https://svgstud.io
  </metadata>
  <metadata id="prompt">
    spartan helmet with plume
  </metadata>
  <metadata id="version">
    7
  </metadata>
  <metadata>
    <rdf:RDF
      xmlns:rdf="http://www.w3.org/1999/02/22-rdf-syntax-ns#"
      xmlns:cc="http://creativecommons.org/ns#"
      xmlns:dc="http://purl.org/dc/elements/1.1/"
    >
      <cc:Work rdf:about="">
        <cc:license rdf:resource="http://creativecommons.org/licenses/by-sa/4.0/" />
        <dc:creator>
          <cc:Agent>
            <dc:title>https://svgstud.io</dc:title>
          </cc:Agent>
        </dc:creator>
      </cc:Work>
      <cc:License rdf:about="http://creativecommons.org/licenses/by-sa/4.0/">
        <cc:permits rdf:resource="http://creativecommons.org/ns#Reproduction" />
        <cc:permits rdf:resource="http://creativecommons.org/ns#Distribution" />
        <cc:requires rdf:resource="http://creativecommons.org/ns#Notice" />
        <cc:requires rdf:resource="http://creativecommons.org/ns#Attribution" />
        <cc:permits rdf:resource="http://creativecommons.org/ns#DerivativeWorks" />
        <cc:requires rdf:resource="http://creativecommons.org/ns#ShareAlike" />
      </cc:License>
    </rdf:RDF>
  </metadata>
  <metadata id="uid">bec10ab82699da9f12112d0eab1097ae897e03c4ab88311c8d6fea98cb6c19f4</metadata>

  <path stroke="none" fill="black" fill-rule="evenodd" d="M371.5,701.2C367.6,701.4 361.7,701.2 358.2,700.9C353.6,700.5 351.3,699.7 349.7,698.1C348.0,696.5 347.5,694.8 347.6,691.2C347.6,688.5 350.1,678.8 353.3,668.5C356.4,658.6 359.6,647.8 360.4,644.5C361.2,641.2 362.8,632.2 363.9,624.5C365.0,616.8 366.4,604.6 367.0,597.5C367.7,590.4 368.7,583.4 369.3,582.1C370.0,580.6 374.3,577.4 380.0,574.2C385.2,571.2 392.6,566.7 396.3,564.3C400.0,561.8 406.9,556.2 411.5,551.9C416.0,547.5 422.5,540.0 425.7,535.2C429.0,530.4 432.7,524.6 434.0,522.2C435.3,519.9 436.8,518.0 437.3,518.0C437.8,518.0 437.8,519.5 437.5,521.2C437.1,523.0 435.5,527.6 433.8,531.5C432.2,535.4 428.8,541.9 426.2,546.0C423.6,550.2 417.4,557.7 412.0,563.0C405.7,569.3 398.5,575.2 390.8,580.3C380.5,587.1 379.0,588.5 378.6,591.3C378.3,593.1 377.6,599.5 377.0,605.5C376.4,611.5 375.3,621.5 374.4,627.5C373.5,633.5 371.8,643.1 370.5,648.6C369.2,654.2 367.2,661.6 366.0,665.0C364.9,668.4 362.1,674.8 360.0,679.2C357.8,683.6 356.0,687.8 356.0,688.6C356.0,689.4 356.4,690.0 357.0,690.0C357.5,690.0 362.8,689.3 368.7,688.4C374.6,687.5 385.4,685.3 392.6,683.5C399.8,681.7 410.7,678.1 416.7,675.6C422.8,673.0 431.8,668.3 436.7,665.1C441.5,661.9 449.8,655.5 455.0,650.9C460.2,646.2 471.2,635.7 479.5,627.4C487.8,619.2 499.7,607.6 506.0,601.8C512.3,595.9 517.1,590.8 516.7,590.4C516.3,590.0 511.6,592.7 506.2,596.3C500.9,600.0 493.8,605.0 490.5,607.5C487.2,609.9 483.7,612.5 482.6,613.1C481.3,613.9 481.6,613.0 483.8,609.8C485.4,607.5 489.5,602.6 492.8,599.0C496.0,595.4 503.4,588.8 509.1,584.3C514.8,579.7 527.9,569.9 538.2,562.5C548.5,555.0 558.1,547.5 559.4,545.7C560.7,543.9 562.1,541.3 562.5,539.8C562.9,538.3 562.9,536.6 562.5,536.0C562.1,535.4 555.2,538.4 543.9,544.1C534.1,549.1 522.4,555.4 518.0,558.0C513.6,560.7 505.7,566.2 500.3,570.3C494.9,574.4 485.3,581.9 479.0,586.9C472.7,591.9 467.4,595.6 467.2,595.1C467.0,594.6 468.0,592.4 469.3,590.3C470.6,588.2 476.5,580.4 482.3,573.0C488.2,565.6 494.1,557.4 495.4,554.9C496.8,552.4 498.6,547.7 499.5,544.4C500.4,540.8 500.8,537.0 500.4,534.6C500.1,532.5 499.1,529.2 498.3,527.3C497.5,525.4 495.3,521.4 493.4,518.5C491.5,515.6 488.7,509.9 487.3,505.9C484.9,499.3 484.6,496.8 484.4,483.0C484.3,474.5 484.1,459.9 484.0,450.5C483.9,441.1 483.8,432.7 483.9,431.7C484.0,430.5 487.2,428.4 494.2,425.1C499.9,422.4 507.9,417.9 512.0,415.2C516.1,412.5 521.1,408.9 523.0,407.2C524.9,405.6 526.1,403.8 525.7,403.4C525.2,402.9 516.7,405.3 506.7,408.7C496.7,412.1 482.3,416.8 474.6,419.0C464.9,421.9 460.5,422.9 459.7,422.1C459.1,421.5 458.1,413.5 457.4,404.3C456.7,395.1 455.7,382.3 455.3,376.0C454.5,364.5 454.5,364.5 436.5,364.2C426.6,364.0 411.3,364.4 402.5,365.0C393.7,365.6 380.0,367.0 372.0,368.0C364.0,369.1 351.2,371.1 343.5,372.5C335.8,374.0 319.4,377.4 307.0,380.1C294.6,382.8 283.7,385.3 282.8,385.6C281.6,385.9 281.0,387.6 280.6,391.3C280.3,394.2 279.1,407.5 277.9,421.0C276.8,434.5 274.6,455.9 273.0,468.5C271.4,481.1 269.3,494.2 268.5,497.5C267.6,500.8 266.3,504.1 265.5,504.9C264.3,506.1 264.0,506.0 263.6,503.9C263.3,502.6 262.9,498.2 262.5,494.1C262.2,490.1 261.6,486.1 261.1,485.2C260.4,484.0 260.0,484.5 259.2,487.1C258.6,489.0 257.4,496.6 256.6,504.0C255.7,511.4 254.4,524.5 253.5,533.0C252.6,541.5 251.5,548.9 251.1,549.3C250.6,549.8 246.8,548.8 242.5,547.1C238.3,545.4 234.4,544.0 233.9,544.0C233.4,544.0 233.0,545.2 233.0,546.6C233.0,548.1 232.3,554.0 231.4,559.9C230.6,565.7 228.6,576.8 227.0,584.5C225.4,592.2 222.5,605.4 220.6,613.7C218.7,622.1 216.6,629.9 216.0,631.0C215.4,632.1 214.6,633.0 214.1,633.0C213.7,633.0 211.5,631.7 209.4,630.1C207.3,628.6 203.0,624.6 199.9,621.4C196.9,618.2 193.0,613.5 191.3,611.0C189.6,608.5 186.8,603.6 184.9,600.0C182.2,594.7 181.6,592.4 181.6,587.5C181.6,583.4 183.2,576.0 186.4,564.5C189.0,555.1 193.1,537.6 195.5,525.5C197.9,513.4 201.1,495.2 202.5,485.0C204.7,469.6 205.3,460.3 206.0,430.0C206.6,409.9 207.4,390.1 208.0,386.0C208.5,381.9 209.3,377.1 209.6,375.5C209.9,373.9 212.3,367.8 214.8,362.0C218.4,353.9 219.4,350.4 219.4,346.5C219.3,343.8 218.1,337.9 216.5,333.5C215.0,329.1 210.0,316.9 205.4,306.3C200.8,295.7 197.0,286.2 197.0,285.2C197.0,284.2 198.0,282.5 199.2,281.4C200.5,280.3 206.0,276.2 211.5,272.3C217.0,268.4 227.1,261.8 234.0,257.5C240.9,253.2 247.2,249.1 248.0,248.3C249.1,247.3 249.5,244.1 249.6,234.8C249.6,228.0 250.2,220.7 250.8,218.5C251.4,216.3 252.6,213.6 253.5,212.5C254.7,210.8 255.1,210.7 255.9,211.9C256.6,213.0 257.2,212.5 258.4,209.6C259.3,207.5 260.5,202.8 261.1,199.2C261.9,194.8 264.0,189.3 267.2,183.0C270.0,177.8 274.4,169.8 277.1,165.4C279.8,160.9 282.6,156.8 283.4,156.1C284.4,155.2 285.0,155.3 285.9,156.3C286.5,157.1 287.6,159.5 288.4,161.6C289.7,165.2 289.8,165.3 290.3,163.0C290.6,161.6 291.3,157.4 291.8,153.6C292.6,148.4 293.7,145.4 296.5,141.5C298.5,138.6 302.7,133.7 306.0,130.6C309.2,127.5 312.3,125.0 312.8,125.0C313.3,125.0 314.1,127.0 314.4,129.5C314.8,132.0 315.5,134.0 315.9,134.0C316.4,134.0 317.3,131.9 318.1,129.2C319.0,125.7 320.8,123.1 325.1,118.8C328.3,115.7 333.6,111.3 337.0,109.0C340.3,106.7 347.2,102.9 352.3,100.5C357.4,98.1 362.4,96.0 363.5,95.8C365.2,95.5 365.4,96.1 365.4,99.3C365.4,101.3 365.8,103.0 366.2,103.0C366.7,103.0 368.8,101.9 370.8,100.5C372.8,99.1 379.0,96.2 384.5,94.1C390.0,91.9 399.2,89.2 404.9,88.0C410.6,86.8 418.4,85.7 422.4,85.6C429.5,85.5 429.5,85.5 429.2,91.7C428.9,98.0 428.9,98.0 432.4,96.5C434.3,95.7 440.2,94.5 445.5,93.8C452.9,92.9 457.4,92.9 466.0,93.8C472.1,94.5 478.8,95.7 480.9,96.6C483.8,97.8 484.9,98.8 485.4,101.0C485.8,103.3 486.7,104.1 489.7,104.9C491.8,105.5 498.0,107.2 503.5,108.7C509.0,110.2 518.0,113.7 523.5,116.5C529.0,119.3 536.6,123.6 540.5,126.2C544.4,128.8 550.6,133.4 554.3,136.5C558.1,139.6 561.0,142.8 560.8,143.5C560.6,144.3 557.2,146.6 553.1,148.7C549.0,150.8 545.7,152.9 545.7,153.5C545.7,154.0 549.3,156.3 553.6,158.5C558.0,160.7 563.6,164.0 566.2,165.8C568.8,167.6 574.7,172.6 579.3,177.0C583.9,181.3 588.9,186.7 590.5,189.0C592.9,192.4 593.1,193.3 591.9,194.0C591.1,194.5 588.6,195.2 586.2,195.6C583.0,196.1 578.0,195.3 566.7,192.7C558.3,190.7 548.0,188.6 543.7,188.1C539.4,187.5 530.5,187.0 523.9,187.0C517.3,187.0 508.6,187.5 504.7,188.0C500.7,188.6 493.3,190.1 488.3,191.2C483.2,192.4 478.8,193.1 478.4,192.7C478.0,192.4 479.2,188.7 481.0,184.5C482.9,180.4 484.1,176.8 483.9,176.5C483.6,176.3 480.4,177.6 476.7,179.5C473.0,181.3 465.4,185.9 459.9,189.5C454.3,193.2 445.3,200.5 439.9,205.7C434.5,211.0 430.0,215.6 430.0,216.0C430.0,216.4 432.3,217.4 435.2,218.4C439.8,219.9 440.5,219.9 442.4,218.5C443.6,217.6 447.4,215.0 451.0,212.6C454.6,210.3 459.4,207.6 461.8,206.7C464.9,205.4 466.0,205.3 466.0,206.3C466.0,207.0 462.8,211.5 459.0,216.3C455.1,221.1 452.0,225.5 452.0,225.9C452.0,226.4 454.1,228.0 456.8,229.5C459.4,231.1 464.4,234.3 468.0,236.9C471.5,239.4 478.2,244.8 482.8,248.8C491.1,256.3 491.1,256.3 496.7,253.5C499.8,252.0 506.7,249.9 511.9,248.8C519.3,247.3 523.8,246.9 531.5,247.3C537.0,247.6 545.1,248.5 549.5,249.4C553.9,250.3 558.6,251.3 560.0,251.5C562.4,252.0 562.5,252.0 560.5,250.4C559.4,249.5 554.0,246.6 548.5,244.0C543.0,241.4 535.8,237.1 532.6,234.6C529.3,232.0 523.4,228.3 519.5,226.4C515.5,224.6 511.6,223.0 510.7,223.0C509.8,223.0 508.8,222.5 508.5,221.9C508.1,221.4 508.6,220.0 509.5,219.0C510.5,217.9 514.3,215.2 518.1,212.9C521.9,210.6 527.8,207.6 531.2,206.3C534.6,204.9 540.8,203.2 544.9,202.4C549.1,201.7 555.7,201.1 559.6,201.0C563.5,201.0 569.3,201.5 572.6,202.1C575.8,202.7 581.0,204.5 584.1,206.2C587.2,207.8 592.5,211.5 595.9,214.3C599.3,217.2 605.2,223.5 609.1,228.4C613.0,233.3 617.3,239.6 618.7,242.5C620.1,245.4 621.0,248.5 620.7,249.4C620.1,250.8 617.2,251.0 595.7,251.0C582.2,251.0 569.8,251.3 568.1,251.6C566.4,252.0 565.0,252.5 565.0,252.9C565.0,253.2 567.8,255.3 571.3,257.5C574.7,259.7 581.9,265.7 587.2,270.8C592.5,276.0 599.2,283.5 602.0,287.6C604.8,291.7 608.7,298.4 610.6,302.4C612.4,306.5 614.5,312.9 615.2,316.7C615.8,320.5 616.1,324.4 615.7,325.3C615.4,326.2 614.2,327.0 613.1,327.0C612.0,327.0 605.2,325.0 598.0,322.5C590.8,320.1 579.7,316.9 573.2,315.4C563.0,313.0 559.4,312.6 544.5,312.6C530.1,312.5 527.0,312.8 524.3,314.3C522.5,315.2 520.3,317.4 519.4,319.1C518.4,321.1 518.1,323.2 518.5,324.9C518.9,326.3 521.6,331.8 524.5,337.0C527.4,342.2 530.8,349.0 532.0,352.0C533.3,355.0 535.3,361.3 536.6,366.0C538.0,370.7 539.7,378.6 540.5,383.5C541.3,388.4 542.4,400.8 543.0,411.0C543.6,421.2 544.5,434.2 545.1,440.0C545.7,445.8 547.3,456.6 548.6,464.0C550.0,471.4 552.0,481.1 553.1,485.5C554.2,489.9 556.3,497.1 557.7,501.5C559.1,505.9 561.6,512.2 563.3,515.5C564.9,518.8 569.3,525.8 573.1,531.0C576.8,536.3 580.4,541.9 581.0,543.5C581.6,545.1 582.3,549.8 582.7,553.9C583.0,558.5 582.8,563.2 582.0,565.9C581.3,568.8 579.3,571.8 576.2,574.9C573.6,577.5 564.7,584.2 556.3,589.8C548.0,595.4 537.7,602.7 533.6,606.0C529.5,609.4 519.0,619.6 510.3,628.7C501.6,637.8 490.4,648.9 485.5,653.3C480.6,657.6 472.4,664.1 467.4,667.6C462.4,671.0 455.0,675.8 450.9,678.1C446.8,680.4 439.5,684.1 434.6,686.2C429.7,688.3 420.7,691.6 414.6,693.4C408.5,695.3 397.9,697.7 391.0,698.9C384.1,700.0 375.4,701.0 371.5,701.2zM385.6,663.0C385.0,662.9 385.9,661.7 387.7,660.2C389.5,658.7 395.5,654.8 401.2,651.5C406.9,648.3 419.5,640.5 429.3,634.2C439.1,627.9 447.3,623.0 447.5,623.2C447.8,623.4 446.6,625.3 444.9,627.3C443.2,629.3 438.6,633.6 434.7,636.8C430.7,640.0 424.7,644.5 421.3,646.9C417.8,649.2 411.1,653.0 406.3,655.4C401.4,657.8 395.1,660.5 392.1,661.4C389.1,662.3 386.2,663.0 385.6,663.0zM259.8,656.5C254.8,657.1 254.1,657.0 253.1,655.2C252.5,654.0 252.0,650.3 252.0,646.8C252.0,643.3 252.9,630.8 254.0,619.0C255.1,607.2 256.9,588.0 258.0,576.5C259.1,565.0 260.9,548.3 262.1,539.5C263.4,528.9 264.6,523.1 265.5,522.4C266.3,521.8 273.9,519.9 282.6,518.1C295.4,515.4 298.4,515.0 299.1,516.1C299.6,516.9 300.0,525.1 300.0,534.5C300.0,543.9 300.5,560.3 301.0,571.0C301.6,581.7 302.7,596.8 303.6,604.4C304.4,612.0 305.8,621.9 306.6,626.4C307.4,630.9 308.0,635.9 308.0,637.7C308.0,640.2 307.3,641.3 304.8,642.8C303.0,643.9 297.9,646.3 293.6,648.0C289.2,649.7 281.1,652.2 275.6,653.5C270.0,654.8 263.0,656.2 259.8,656.5zM469.6,560.0C463.0,560.0 462.6,559.9 459.0,556.2C456.7,553.9 454.7,550.7 454.0,548.1C453.4,545.6 453.1,542.1 453.5,540.1C453.9,538.1 455.2,534.0 456.5,531.0C458.4,526.4 458.9,523.1 459.4,511.5C459.7,503.8 460.4,495.9 460.8,494.0C461.3,491.9 461.9,491.0 462.3,491.7C462.7,492.3 463.3,499.9 463.7,508.4C464.3,524.0 464.3,524.0 469.4,524.0C472.2,524.0 476.1,524.5 478.0,525.0C480.0,525.5 483.0,527.4 484.7,529.2C486.5,531.0 488.4,533.8 488.9,535.3C489.5,536.9 490.0,540.2 490.0,542.7C490.0,545.8 489.2,548.7 487.5,551.6C485.9,554.4 483.6,556.5 480.7,557.9C477.6,559.4 474.4,560.0 469.6,560.0zM473.0,551.7C474.0,551.6 474.6,550.1 474.8,547.8C475.1,544.5 475.5,543.9 478.3,543.2C480.5,542.6 481.8,541.5 482.4,539.7C483.1,537.7 482.9,535.9 481.4,532.3C480.0,528.7 478.8,527.5 476.6,526.9C474.8,526.4 472.5,526.6 470.5,527.4C468.3,528.3 466.6,530.2 465.1,533.2C464.0,535.6 463.0,538.9 463.0,540.4C463.0,541.9 463.7,544.4 464.5,546.0C465.3,547.6 467.3,549.6 468.8,550.4C470.3,551.3 472.2,551.8 473.0,551.7zM305.2,502.0C301.4,502.0 301.0,501.8 301.0,499.6C301.0,498.3 301.7,488.5 302.6,477.9C303.4,467.2 304.5,458.1 305.0,457.6C305.5,457.1 326.7,451.9 352.2,446.0C377.7,440.1 405.7,433.4 414.4,431.1C423.2,428.8 430.7,427.3 431.1,427.7C431.5,428.1 432.2,436.4 432.6,446.0C433.2,462.4 433.1,463.6 431.4,465.1C430.3,466.0 423.6,469.5 416.3,472.9C409.1,476.2 394.6,481.9 384.1,485.4C373.6,489.0 358.8,493.3 351.2,494.9C343.7,496.6 331.2,498.8 323.5,499.9C315.8,501.1 307.6,502.0 305.2,502.0zM251.0,455.7C253.5,455.5 253.5,455.4 253.2,447.6C253.0,443.3 252.5,438.9 252.0,437.9C251.4,437.0 244.4,432.7 236.3,428.6C227.6,424.0 221.3,421.3 220.7,421.9C220.2,422.4 220.2,426.1 220.8,431.0C221.5,436.3 222.5,440.2 223.7,441.8C224.8,443.2 226.7,445.2 228.1,446.2C229.4,447.2 234.6,449.8 239.5,452.0C244.4,454.2 249.6,455.8 251.0,455.7zM285.8,377.5C288.4,377.1 306.5,373.7 326.0,369.9C345.5,366.1 372.1,361.2 385.0,359.0C397.9,356.8 414.1,354.4 421.0,353.6C427.9,352.8 438.7,351.9 445.0,351.5C451.4,351.2 463.4,351.4 471.8,352.1C480.2,352.7 487.3,353.0 487.6,352.8C487.8,352.5 485.7,348.3 482.9,343.4C480.1,338.5 475.6,331.5 472.9,327.9C470.3,324.3 465.7,319.1 462.8,316.4C459.9,313.6 454.6,309.2 451.1,306.6C447.5,304.0 441.8,300.3 438.4,298.4C435.0,296.5 429.4,293.8 426.0,292.4C422.6,291.0 415.8,288.8 410.8,287.5C405.8,286.2 401.5,284.8 401.2,284.5C400.9,284.3 401.5,283.1 402.4,282.1C404.1,280.2 404.1,280.1 400.8,279.5C398.9,279.1 394.0,279.3 389.8,279.9C385.7,280.5 378.5,282.1 373.9,283.6C369.3,285.0 362.6,287.7 359.0,289.6C355.4,291.5 348.0,296.3 342.6,300.4C337.1,304.5 328.6,311.8 323.7,316.7C318.8,321.5 311.5,329.4 307.4,334.2C303.4,339.0 296.7,348.1 292.5,354.4C288.4,360.7 284.1,367.8 283.0,370.2C281.9,372.6 281.0,375.3 281.0,376.4C281.0,378.0 281.5,378.1 285.8,377.5zM273.3,350.4C277.3,346.6 287.0,338.0 295.0,331.4C303.0,324.7 315.5,313.8 322.8,307.2C330.1,300.5 339.8,292.6 344.4,289.6C349.0,286.5 356.2,282.4 360.5,280.4C364.8,278.4 372.6,275.7 377.9,274.3C385.7,272.3 389.9,271.8 400.5,271.8C408.8,271.8 416.3,272.4 421.3,273.5C425.7,274.4 433.1,276.2 437.8,277.6C442.6,279.0 450.8,281.9 456.0,284.2C461.2,286.4 468.6,290.2 472.5,292.7C476.3,295.2 483.0,300.0 487.5,303.3C491.9,306.6 499.2,313.0 503.7,317.4C508.3,321.8 512.3,325.1 512.6,324.7C513.0,324.4 512.7,322.6 511.9,320.8C511.2,319.0 506.8,313.8 502.2,309.2C495.7,302.8 494.0,300.5 494.5,299.0C494.8,297.9 497.1,294.6 499.6,291.6C502.0,288.6 505.3,285.2 506.9,284.0C509.9,282.0 509.9,282.0 513.2,285.3C515.0,287.2 519.1,291.0 522.4,293.9C526.3,297.5 528.5,298.9 529.2,298.2C529.8,297.6 530.0,296.0 529.6,294.6C529.3,293.2 526.7,289.2 524.0,285.6C521.2,282.0 519.0,278.8 519.0,278.6C519.0,278.3 520.7,277.6 522.8,277.1C524.8,276.6 530.8,275.6 536.0,275.0C541.2,274.4 549.1,274.2 553.5,274.5C557.9,274.8 566.4,276.0 572.3,277.2C578.3,278.3 583.4,278.9 583.8,278.5C584.2,278.1 582.7,276.3 580.6,274.4C578.4,272.5 572.6,268.2 567.6,264.8C562.6,261.4 555.6,257.5 552.0,256.1C546.1,253.8 544.1,253.6 530.5,253.6C519.3,253.5 513.8,254.0 509.0,255.3C505.4,256.3 500.8,257.8 498.8,258.7C496.7,259.6 495.0,260.9 495.0,261.5C495.0,262.2 496.7,265.2 498.7,268.1C500.8,271.2 501.5,272.9 500.4,272.0C499.4,271.2 496.2,268.8 493.5,266.6C490.8,264.3 485.6,260.0 482.0,256.9C478.4,253.8 472.7,249.4 469.4,247.1C466.0,244.9 458.6,240.8 452.9,238.0C447.2,235.3 437.6,231.5 431.6,229.5C425.6,227.6 416.8,225.3 412.1,224.5C407.4,223.6 397.8,222.6 390.9,222.3C381.5,221.9 375.1,222.2 365.9,223.5C359.1,224.4 348.2,226.7 341.7,228.6C335.3,230.4 328.6,232.7 327.0,233.5C325.3,234.4 324.0,235.6 324.0,236.3C324.0,236.9 325.0,244.1 326.2,252.1C327.3,260.1 328.1,267.4 327.7,268.3C327.4,269.2 325.8,270.6 324.1,271.4C321.1,273.0 321.1,273.0 320.1,269.4C319.6,267.5 317.9,259.0 316.5,250.7C315.1,242.3 313.7,234.0 313.4,232.2C313.1,230.3 312.3,229.0 311.5,229.0C310.7,229.0 305.9,231.1 300.8,233.8C295.7,236.4 282.5,244.3 271.5,251.4C260.5,258.5 245.7,267.9 238.5,272.2C231.3,276.6 224.9,280.8 224.1,281.6C222.8,282.7 223.2,284.3 226.9,292.7C229.2,298.1 234.6,311.5 238.8,322.4C243.0,333.4 247.1,342.5 247.8,342.8C248.6,343.0 250.9,339.3 254.1,332.6C256.8,326.7 259.5,322.2 259.9,322.5C260.4,322.7 261.1,326.0 261.4,329.7C261.8,333.5 262.6,340.1 263.2,344.5C263.8,348.9 264.7,353.6 265.2,354.9C266.0,357.1 266.3,357.0 273.3,350.4zM281.1,301.2C275.6,306.9 271.0,310.9 271.0,310.2C271.0,309.5 271.6,307.7 272.4,306.2C273.2,304.7 275.8,301.7 278.2,299.4C280.6,297.1 284.2,294.0 286.3,292.5C288.4,291.0 290.3,290.0 290.6,290.3C291.0,290.6 286.7,295.5 281.1,301.2zM479.6,290.0C479.0,290.0 475.6,288.5 472.0,286.7C465.5,283.5 465.5,283.5 465.7,279.5C465.8,277.3 466.0,272.7 466.2,269.3C466.4,265.8 467.0,263.0 467.5,263.0C468.1,263.0 470.3,264.2 472.5,265.6C474.7,267.1 477.7,269.4 479.2,270.8C481.3,272.7 482.0,274.3 482.0,277.0C482.0,279.1 481.7,282.8 481.4,285.4C481.0,287.9 480.2,290.0 479.6,290.0zM305.2,278.4C304.5,278.8 303.5,277.0 302.5,273.8C301.6,270.9 300.2,263.9 299.4,258.2C298.5,252.5 298.1,247.6 298.4,247.2C298.8,246.9 299.5,247.1 300.0,247.6C300.5,248.1 301.9,252.1 303.0,256.5C304.1,260.9 305.3,267.5 305.7,271.1C306.1,275.4 305.9,278.0 305.2,278.4zM449.4,276.0C448.7,276.0 447.6,275.1 447.0,273.9C446.2,272.5 446.1,268.6 446.6,261.9C447.0,255.2 447.6,252.0 448.5,252.0C449.1,252.0 450.5,252.9 451.5,254.0C453.0,255.7 453.2,257.0 452.6,263.7C452.2,268.0 451.6,272.5 451.3,273.8C451.0,275.0 450.2,276.0 449.4,276.0zM427.5,269.7C425.3,269.7 420.1,269.3 416.0,268.7C408.5,267.5 408.5,267.5 408.2,256.5C408.0,250.4 408.2,244.5 408.5,243.2C408.9,241.6 409.8,241.0 411.8,241.0C413.3,241.1 418.1,241.7 422.4,242.5C426.8,243.3 430.9,244.5 431.7,245.3C432.8,246.4 433.0,248.9 432.3,258.1C431.5,269.5 431.5,269.5 427.5,269.7zM338.6,223.0C338.9,223.0 342.0,222.3 345.4,221.4C348.7,220.6 353.2,219.4 355.2,218.9C358.7,218.0 359.1,217.5 360.5,212.2C361.4,209.1 362.8,204.5 363.7,202.0C364.6,199.5 366.0,196.7 366.9,195.6C367.8,194.6 370.6,192.7 373.1,191.4C375.7,190.1 381.2,188.2 385.5,187.1C389.7,186.0 395.5,184.7 398.2,184.4C403.2,183.7 403.2,183.7 402.0,186.1C401.3,187.4 399.6,190.2 398.3,192.4C396.9,194.5 394.3,200.3 392.4,205.2C390.4,210.2 389.2,214.6 389.7,215.1C390.1,215.5 395.9,216.2 402.5,216.6C414.5,217.2 414.5,217.2 420.5,212.6C423.8,210.1 429.9,205.0 434.0,201.4C438.1,197.8 447.8,190.7 455.5,185.5C463.2,180.4 476.0,172.5 484.0,167.9C492.0,163.4 501.2,158.4 504.5,156.9C507.8,155.3 513.4,153.4 517.0,152.5C520.6,151.7 525.3,150.7 527.5,150.4C531.5,149.8 531.5,149.8 527.8,147.9C525.7,146.8 520.1,144.7 515.3,143.0C510.4,141.4 502.5,139.6 497.6,139.0C492.8,138.4 486.8,138.2 484.4,138.6C480.5,139.1 480.0,139.0 480.0,137.4C480.0,136.3 483.6,130.8 488.0,125.0C492.3,119.2 495.9,114.2 496.0,113.9C496.0,113.5 495.3,112.9 494.4,112.6C493.6,112.3 491.5,112.6 489.7,113.4C487.9,114.1 484.5,116.5 482.0,118.7C479.5,120.9 474.6,126.4 471.0,130.8C465.5,137.7 463.2,139.6 456.7,143.2C452.4,145.5 445.6,150.2 441.7,153.6C437.7,156.9 431.2,163.1 427.1,167.3C419.7,174.8 419.7,174.8 412.6,175.5C408.7,175.8 401.9,176.6 397.5,177.1C393.1,177.7 388.7,178.3 387.8,178.6C386.5,179.0 386.0,178.6 386.0,177.1C386.0,176.0 389.1,170.5 392.9,164.8C396.7,159.1 404.7,148.7 410.6,141.7C416.6,134.6 424.1,125.6 427.4,121.7C430.6,117.7 434.7,112.9 436.4,111.0C438.2,109.1 441.5,105.8 443.8,103.8C448.0,100.0 448.0,100.0 439.0,100.0C430.0,100.0 430.0,100.0 416.3,106.9C408.7,110.6 398.3,116.3 393.1,119.4C388.0,122.5 382.0,126.5 379.9,128.2C377.7,129.9 375.7,131.0 375.3,130.7C375.0,130.3 376.3,125.4 378.2,119.7C380.2,114.1 382.6,107.4 383.6,104.8C384.6,102.2 385.1,99.8 384.7,99.4C384.4,99.0 382.6,99.3 380.8,100.1C379.1,100.8 375.0,103.6 371.8,106.3C366.6,110.6 365.2,112.6 359.9,123.5C356.4,130.8 350.5,140.6 345.7,147.2C341.1,153.4 335.8,161.2 333.8,164.5C331.8,167.8 328.2,174.6 325.8,179.5C323.3,184.4 320.3,191.3 319.1,194.8C318.0,198.2 317.0,201.7 317.0,202.5C317.0,203.3 317.2,204.0 317.4,204.0C317.6,204.0 322.6,201.7 328.4,198.9C334.5,195.9 339.6,194.0 340.5,194.4C341.5,194.8 341.9,195.7 341.6,196.7C341.3,197.7 340.3,203.0 339.5,208.5C338.7,214.0 338.0,219.5 338.0,220.8C338.0,222.0 338.3,223.0 338.6,223.0z" />

</svg>
